<?xml version="1.0" encoding="UTF-8"?>
<!-- Generator: visioncortex VTracer 0.6.4 -->
<svg version="1.1" xmlns="http://www.w3.org/2000/svg" width="640" height="640">
<path d="M0 0 C1.31871094 0.48146484 1.31871094 0.48146484 2.6640625 0.97265625 C27.68832899 10.80613562 49.37674478 24.70139152 69 43 C69.79019531 43.72445312 70.58039063 44.44890625 71.39453125 45.1953125 C102.30124467 74.65405388 119.90745395 118.38837786 122.64160156 160.51855469 C124.02594496 181.16786096 130.57919228 195.75554372 140 214 C153.93916614 241.11714915 153.93916614 241.11714915 149.75 254.8125 C146.66835949 262.83047206 141.82016153 268.7982746 133.97265625 272.3828125 C127.72693573 274.81696729 121.36156473 276.89289945 115 279 C114.93006836 279.62753174 114.86013672 280.25506348 114.78808594 280.90161133 C111.61425093 308.91249115 108.32022829 337.8822353 85 357 C62.72936265 371.8383063 38.8471278 373.44681769 13 369 C12.94431938 384.55776694 12.94431938 384.55776694 18 399 C18.53625 400.0725 19.0725 401.145 19.625 402.25 C30.53203287 414.87919595 51.62712635 418.54139348 67.15039062 422.55615234 C97.40622226 430.41344934 128.04406152 441.08569223 151 463 C151.93779297 463.82564453 151.93779297 463.82564453 152.89453125 464.66796875 C163.63422501 474.48642467 171.18715116 490.38564059 172.203125 504.90234375 C172.36866011 515.62074186 172.36866011 515.62074186 169 520 C164.98387205 522.67741863 161.79725776 523.69960009 157 523 C152.56924225 520.65430472 150.223117 518.45912163 148 514 C147.6640625 511.30859375 147.6640625 511.30859375 147.625 508.4375 C146.98441143 498.22576452 142.6755795 489.62684958 136 482 C135.54625 481.44183594 135.0925 480.88367188 134.625 480.30859375 C118.91742826 462.67848068 90.07203609 453.98673183 67.9375 448.25 C11.16182021 433.02375017 11.16182021 433.02375017 -1 415 C-6.40837164 405.25974317 -10.15129894 396.77277813 -10.09765625 385.5078125 C-10.09443359 384.30898438 -10.09121094 383.11015625 -10.08789062 381.875 C-10.07951172 380.6375 -10.07113281 379.4 -10.0625 378.125 C-10.05798828 376.86429687 -10.05347656 375.60359375 -10.04882812 374.3046875 C-10.0370796 371.20307614 -10.02065167 368.10156275 -10 365 C-10.86052979 365.17128418 -11.72105957 365.34256836 -12.60766602 365.51904297 C-15.87794672 366.16762492 -19.14901392 366.81193899 -22.4206543 367.45361328 C-23.82201945 367.72931786 -25.22307563 368.00659875 -26.6237793 368.28564453 C-40.36286574 371.02062617 -53.99975096 373.39217236 -68.0625 373.3125 C-69.12686279 373.30758545 -70.19122559 373.3026709 -71.2878418 373.29760742 C-88.17553148 373.05325783 -109.6334252 371.6832874 -125 364 C-124.98428955 364.90540527 -124.98428955 364.90540527 -124.96826172 365.82910156 C-124.65742172 386.47045122 -125.52925605 405.1224226 -140.04296875 421.2734375 C-153.8292481 434.8056983 -174.03905313 440.31564617 -192.28491211 444.97436523 C-240.81873555 457.36060515 -240.81873555 457.36060515 -277.53125 489.46875 C-281.57689672 496.44103477 -283.23628478 502.50090056 -283.734375 510.515625 C-284.18976769 514.77488607 -285.80746471 517.66986449 -288.625 520.8125 C-292.35363356 522.67681678 -295.83044954 523.4835277 -300 523 C-303.98171346 520.77644573 -306.55332978 518.34001065 -308 514 C-308.72029993 505.92432963 -307.38510852 498.69456747 -305 491 C-304.74476563 490.16726563 -304.48953125 489.33453125 -304.2265625 488.4765625 C-295.55609375 463.89697678 -272.28071076 449.07940469 -249.92578125 438.33007812 C-233.83624607 431.01567662 -216.75495677 426.35834957 -199.74267578 421.75244141 C-174.87088433 415.59286469 -174.87088433 415.59286469 -154.625 401.125 C-151.11876148 394.38223362 -149.55266795 388.86233111 -149.48828125 381.34375 C-149.47033005 380.55601196 -149.45237885 379.76827393 -149.43388367 378.95666504 C-149.38023695 376.47116251 -149.34603384 373.9858468 -149.3125 371.5 C-149.27928643 369.80205758 -149.2447931 368.10413968 -149.20898438 366.40625 C-149.12453777 362.27096925 -149.05751144 358.13573948 -149 354 C-149.91950439 353.70448242 -150.83900879 353.40896484 -151.78637695 353.10449219 C-190.22597755 339.89316095 -221.58968803 301.4055778 -239.1105957 266.20751953 C-245.43356107 253.11028894 -250.69624252 239.15767551 -254.0625 225 C-254.22298828 224.37222656 -254.38347656 223.74445313 -254.54882812 223.09765625 C-257.83259781 209.35593733 -258.37932267 195.25123116 -258.3125 181.1875 C-258.31100952 180.40418304 -258.30951904 179.62086609 -258.3079834 178.81381226 C-258.26648854 166.64234703 -257.57367788 154.92822045 -255 143 C-254.86078125 142.29536621 -254.7215625 141.59073242 -254.578125 140.86474609 C-244.99747585 92.3959759 -216.57248531 49.87162596 -176 22 C-171.74337823 19.18892898 -167.41724329 16.55043214 -163 14 C-161.8759375 13.34386719 -160.751875 12.68773438 -159.59375 12.01171875 C-143.50816378 2.88325935 -125.97101273 -2.88992935 -108 -7 C-107.31147949 -7.15839355 -106.62295898 -7.31678711 -105.91357422 -7.47998047 C-71.93348915 -15.14385496 -32.70775713 -12.04282748 0 0 Z M-165 43 C-165.5254541 43.38172363 -166.0509082 43.76344727 -166.59228516 44.15673828 C-203.41382388 70.98768775 -226.30575921 111.07671668 -233.62109375 155.796875 C-240.1627141 200.62332848 -228.54589335 246.25988358 -201.65625 282.59765625 C-196.72309763 289.05395634 -191.09502153 294.90497847 -185.35546875 300.64453125 C-184.04926888 301.95073112 -182.75397228 303.26921358 -181.5078125 304.6328125 C-163.41824854 324.15318943 -135.42805632 337.64444764 -110 344 C-109.26442871 344.18933105 -108.52885742 344.37866211 -107.77099609 344.57373047 C-105.53786632 345.14564722 -103.30162762 345.70206467 -101.0625 346.25 C-100.4010498 346.41346924 -99.73959961 346.57693848 -99.05810547 346.74536133 C-77.99348975 351.66393598 -53.39156335 350.58265972 -32.51611328 345.42675781 C-17.40577878 341.74766322 -3.64383156 342.39945247 11.625 345 C31.38234346 348.32166862 52.66074494 350.87940801 69.9765625 338.94921875 C82.54335807 328.5139593 86.11969972 314.93425506 88.5625 299.4375 C88.87477539 297.53387695 88.87477539 297.53387695 89.19335938 295.59179688 C90.04161319 290.35602331 90.87573367 285.12455962 91.51586914 279.85888672 C91.64075966 278.84641624 91.64075966 278.84641624 91.76817322 277.81349182 C91.99426143 275.94407847 92.2086859 274.07326514 92.42236328 272.20239258 C93.40767103 266.73988975 95.59406614 262.75800817 100.07421875 259.484375 C104.84165378 257.06564962 109.93582453 255.75393827 115.05078125 254.25 C121.51405951 252.52104354 121.51405951 252.52104354 127 249 C128.00051334 242.44029634 126.07243463 237.96615126 123.125 232.1875 C122.72442383 231.37144287 122.32384766 230.55538574 121.91113281 229.71459961 C118.96920046 223.77214655 115.86211539 217.9170385 112.75 212.0625 C104.82977127 197.13388619 100.13803057 183.41482257 99.5625 166.4375 C98.20198745 129.72123896 84.06955033 94.02219729 58.953125 67.10546875 C57.35939276 65.38742539 55.88541074 63.65134665 54.4375 61.8125 C38.68053051 43.63138136 15.10566171 31.43865557 -7 23 C-7.64646484 22.74879395 -8.29292969 22.49758789 -8.95898438 22.23876953 C-27.53657738 15.126572 -47.2992636 12.78070785 -67.0625 12.8125 C-67.75352814 12.81310425 -68.44455627 12.8137085 -69.15652466 12.81433105 C-102.87995057 12.89449574 -137.68561055 22.54277945 -165 43 Z " fill="#030303" transform="translate(388,64)"/>
<path d="M0 0 C3.93247904 0.87224159 6.15313878 2.33428402 8.68986511 5.42407227 C10.73150425 9.89022661 10.46886646 14.00859372 10.4152832 18.86328125 C10.41611404 20.43240768 10.41611404 20.43240768 10.41696167 22.03323364 C10.41670201 24.30147244 10.40983126 26.56971795 10.39711952 28.83792114 C10.37875908 32.42720698 10.3814045 36.01590871 10.3901825 39.60522461 C10.41201058 49.80884811 10.4010009 60.01224762 10.36303711 70.21582031 C10.34127707 76.45927463 10.34844075 82.70215375 10.3734951 88.94558716 C10.37709381 91.32505262 10.36939833 93.70456276 10.35024452 96.08395386 C10.32399006 99.40948242 10.33431031 102.73305607 10.3527832 106.05859375 C10.32738213 107.53466599 10.32738213 107.53466599 10.3014679 109.04055786 C10.2652411 113.92766851 10.2652411 113.92766851 12.40328026 118.14057922 C14.19119645 119.68208184 14.19119645 119.68208184 17.078125 121.4609375 C21.59627497 126.93525409 22.88941637 132.44603959 22.55859375 139.46484375 C21.37179702 146.86543798 17.84575638 152.74682354 11.890625 157.27734375 C6.0841463 161.06907445 0.88395677 162.43636616 -5.921875 161.4609375 C-9.54175896 160.54229625 -12.76310564 159.46467196 -15.921875 157.4609375 C-16.23695511 156.91423401 -16.55203522 156.36753052 -16.87666321 155.80426025 C-18.33400425 153.37621309 -19.56086241 152.05933011 -21.921875 150.4609375 C-27.5790445 149.42200297 -33.18838993 149.60344939 -38.921875 149.69921875 C-40.60286679 149.69999164 -42.28386389 149.69710175 -43.96484375 149.6907196 C-48.38197003 149.68114143 -52.79791874 149.7097277 -57.21484375 149.74987793 C-64.2833885 149.8113962 -71.35163104 149.83107727 -78.42041016 149.82005882 C-80.88364671 149.82415518 -83.34559185 149.85442947 -85.80859375 149.88703918 C-87.32551865 149.89092166 -88.8424463 149.89387498 -90.359375 149.89575195 C-92.33744141 149.91409843 -92.33744141 149.91409843 -94.35546875 149.93281555 C-99.45593291 149.25796336 -102.58469109 147.11013099 -105.796875 143.1484375 C-107.3096393 139.53461167 -107.52582626 137.35306781 -106.921875 133.4609375 C-104.80170567 130.19315357 -102.44034105 127.22017053 -98.921875 125.4609375 C-96.54262562 125.37525327 -94.1924459 125.34873164 -91.81347656 125.36669922 C-90.2962445 125.36948618 -88.77901223 125.37215601 -87.26177979 125.37472534 C-86.45563484 125.37777554 -85.6494899 125.38082573 -84.81891632 125.38396835 C-80.5537116 125.39529606 -76.2886144 125.37481304 -72.0234375 125.359375 C-66.59387788 125.34108706 -61.16488624 125.33237484 -55.73535156 125.36132812 C-51.3494906 125.38388244 -46.96486612 125.372416 -42.57909393 125.33832169 C-40.90940462 125.33155647 -39.23961596 125.3372217 -37.57001495 125.35567856 C-28.67173546 125.79321405 -28.67173546 125.79321405 -20.60046387 122.87994385 C-19.11941755 121.1383709 -18.04346708 119.44143876 -16.921875 117.4609375 C-16.261875 117.1309375 -15.601875 116.8009375 -14.921875 116.4609375 C-14.92382323 115.63709438 -14.92382323 115.63709438 -14.92581081 114.79660797 C-14.95506329 101.40790656 -14.94512774 88.01972242 -14.89340878 74.63108063 C-14.86957339 68.15623539 -14.85860188 61.68190469 -14.87719727 55.20703125 C-14.89467311 48.95621286 -14.87813798 42.70631816 -14.83819771 36.45561218 C-14.82891635 34.07307019 -14.83181051 31.69044811 -14.84718132 29.30793762 C-14.86664926 25.96533193 -14.84250359 22.62563251 -14.80834961 19.28320312 C-14.8241658 18.30208557 -14.83998199 17.32096802 -14.85627747 16.31011963 C-14.73135684 9.94021372 -13.19537489 6.57830212 -8.87362003 1.8976059 C-5.97221188 -0.23810411 -3.51191752 -0.34641363 0 0 Z " fill="#060606" transform="translate(321.921875,115.5390625)"/>
</svg>
